<!--?xml version="1.0" standalone="no"?-->
              <svg id="sw-js-blob-svg" viewBox="0 0 100 100" xmlns="http://www.w3.org/2000/svg" version="1.1">
                    <defs> 
                        <linearGradient id="sw-gradient" x1="0" x2="1" y1="1" y2="0">
                            <stop id="stop1" stop-color="rgba(174.398, 203.701, 102.426, 1)" offset="0%"></stop>
                            <stop id="stop2" stop-color="rgba(31, 251, 53.512, 1)" offset="100%"></stop>
                        </linearGradient>
                    </defs>
                <path fill="none" d="M20.9,-34.9C27.3,-32.5,33,-27.4,32.5,-21.1C31.9,-14.9,25.3,-7.4,26,0.4C26.7,8.2,34.7,16.4,34.8,22C34.9,27.5,27.1,30.4,19.9,33.4C12.8,36.4,6.4,39.6,1.5,37C-3.4,34.3,-6.8,26,-12.8,22.3C-18.8,18.7,-27.5,19.8,-29.7,16.8C-31.9,13.9,-27.7,7,-24.3,2C-20.8,-3,-18.2,-6,-17.4,-11.4C-16.7,-16.9,-17.8,-24.9,-15.2,-29.5C-12.6,-34.2,-6.3,-35.6,0.5,-36.4C7.2,-37.2,14.5,-37.4,20.9,-34.9Z" width="100%" height="100%" transform="translate(50 50)" stroke-width="1" style="transition: all 0.3s ease 0s;" stroke="url(#sw-gradient)"></path>
              </svg>