<!--?xml version="1.0" standalone="no"?-->
              <svg id="sw-js-blob-svg" viewBox="0 0 100 100" xmlns="http://www.w3.org/2000/svg" version="1.1">
                    <defs> 
                        <linearGradient id="sw-gradient" x1="0" x2="1" y1="1" y2="0">
                            <stop id="stop1" stop-color="rgba(174.398, 203.701, 102.426, 1)" offset="0%"></stop>
                            <stop id="stop2" stop-color="rgba(31, 251, 53.512, 1)" offset="100%"></stop>
                        </linearGradient>
                    </defs>
                <path fill="none" d="M21,-36.1C26.9,-33,31.2,-26.7,32.1,-20.2C33.1,-13.6,30.7,-6.8,29,-1C27.2,4.8,26,9.5,24.7,15.5C23.4,21.5,22.1,28.7,18,33.4C13.8,38,6.9,40.1,1.4,37.6C-4.1,35.1,-8.1,28.1,-13.2,24C-18.3,20,-24.5,18.8,-28.3,15.3C-32.1,11.8,-33.6,5.9,-35.7,-1.2C-37.7,-8.3,-40.4,-16.6,-36.8,-20.4C-33.1,-24.1,-23.1,-23.4,-15.9,-25.8C-8.7,-28.1,-4.4,-33.6,1.6,-36.4C7.6,-39.1,15.1,-39.2,21,-36.1Z" width="100%" height="100%" transform="translate(50 50)" stroke-width="1" style="transition: all 0.3s ease 0s;" stroke="url(#sw-gradient)"></path>
              </svg>