<!--?xml version="1.0" standalone="no"?-->
              <svg id="sw-js-blob-svg" viewBox="0 0 100 100" xmlns="http://www.w3.org/2000/svg" version="1.1">
                    <defs> 
                        <linearGradient id="sw-gradient" x1="0" x2="1" y1="1" y2="0">
                            <stop id="stop1" stop-color="rgba(248, 117, 55, 1)" offset="0%"></stop>
                            <stop id="stop2" stop-color="rgba(251, 168, 31, 1)" offset="100%"></stop>
                        </linearGradient>
                    </defs>
                <path fill="none" d="M22,-27.3C28.8,-20.5,34.8,-13.8,35.4,-6.8C36,0.3,31.2,7.8,26.8,15.6C22.5,23.4,18.5,31.6,12.3,33.9C6.1,36.3,-2.3,32.9,-11.4,30.1C-20.4,27.3,-30.1,25.1,-35.9,18.9C-41.7,12.6,-43.6,2.3,-40.7,-6C-37.9,-14.3,-30.2,-20.6,-22.7,-27.4C-15.1,-34.1,-7.5,-41.2,0,-41.2C7.6,-41.3,15.2,-34.2,22,-27.3Z" width="100%" height="100%" transform="translate(50 50)" stroke-width="1" style="transition: all 0.3s ease 0s;" stroke="url(#sw-gradient)"></path>
              </svg>