<!--?xml version="1.0" standalone="no"?-->
              <svg id="sw-js-blob-svg" viewBox="0 0 100 100" xmlns="http://www.w3.org/2000/svg" version="1.1">
                    <defs> 
                        <linearGradient id="sw-gradient" x1="0" x2="1" y1="1" y2="0">
                            <stop id="stop1" stop-color="rgba(174.398, 203.701, 102.426, 1)" offset="0%"></stop>
                            <stop id="stop2" stop-color="rgba(31, 251, 53.512, 1)" offset="100%"></stop>
                        </linearGradient>
                    </defs>
                <path fill="none" d="M8.6,-15.9C14,-11.7,23.2,-15.2,24.2,-13.8C25.2,-12.5,18,-6.2,13.8,-2.5C9.5,1.3,8.2,2.6,8.2,5.8C8.2,9,9.6,14,8.5,19.1C7.3,24.1,3.7,29.2,1.2,27.1C-1.3,25.1,-2.6,15.9,-5.4,11.8C-8.2,7.7,-12.4,8.7,-12.9,7.6C-13.4,6.4,-10.1,3.2,-13.9,-2.2C-17.8,-7.7,-28.9,-15.4,-29,-17.6C-29.2,-19.9,-18.5,-16.7,-11.9,-20.2C-5.2,-23.6,-2.6,-33.7,-0.5,-32.8C1.6,-31.9,3.2,-20.1,8.6,-15.9Z" width="100%" height="100%" transform="translate(50 50)" stroke-width="1" style="transition: all 0.3s ease 0s;" stroke="url(#sw-gradient)"></path>
              </svg>