<!--?xml version="1.0" standalone="no"?-->
              <svg id="sw-js-blob-svg" viewBox="0 0 100 100" xmlns="http://www.w3.org/2000/svg" version="1.1">
                    <defs> 
                        <linearGradient id="sw-gradient" x1="0" x2="1" y1="1" y2="0">
                            <stop id="stop1" stop-color="rgba(248, 117, 55, 1)" offset="0%"></stop>
                            <stop id="stop2" stop-color="rgba(251, 168, 31, 1)" offset="100%"></stop>
                        </linearGradient>
                    </defs>
                <path fill="none" d="M5.6,-12C6.2,-9.3,5.1,-5.8,3.9,-3.6C2.6,-1.5,1.3,-0.8,3.3,1.1C5.2,3,10.5,6,14.1,12.4C17.8,18.8,19.9,28.5,17.3,33.3C14.7,38.2,7.4,38.1,-0.4,38.7C-8.1,39.4,-16.2,40.7,-21,37.2C-25.8,33.6,-27.3,25.1,-25.9,18.1C-24.4,11.1,-20,5.6,-16.1,2.3C-12.2,-1,-8.8,-2.1,-6.8,-3.1C-4.7,-4,-4.1,-5,-3.2,-7.5C-2.3,-10.1,-1.1,-14.3,0.7,-15.5C2.5,-16.6,4.9,-14.7,5.6,-12Z" width="100%" height="100%" transform="translate(50 50)" stroke-width="1" style="transition: all 0.3s ease 0s;" stroke="url(#sw-gradient)"></path>
              </svg>