<!--?xml version="1.0" standalone="no"?-->
              <svg id="sw-js-blob-svg" viewBox="0 0 100 100" xmlns="http://www.w3.org/2000/svg" version="1.1">
                    <defs> 
                        <linearGradient id="sw-gradient" x1="0" x2="1" y1="1" y2="0">
                            <stop id="stop1" stop-color="rgba(248, 117, 55, 1)" offset="0%"></stop>
                            <stop id="stop2" stop-color="rgba(251, 168, 31, 1)" offset="100%"></stop>
                        </linearGradient>
                    </defs>
                <path fill="none" d="M8.3,-13.4C12.4,-12.1,18.2,-13,24.7,-11.2C31.1,-9.3,38.1,-4.6,36,-1.2C34,2.3,22.9,4.6,18.7,10.3C14.6,16.1,17.2,25.3,15.3,30.9C13.3,36.5,6.6,38.4,2.2,34.6C-2.2,30.7,-4.4,21,-10.1,17.6C-15.7,14.1,-24.9,16.9,-27.7,15C-30.6,13.1,-27.2,6.6,-25.3,1.1C-23.3,-4.3,-22.9,-8.7,-21,-12.2C-19.1,-15.7,-15.6,-18.4,-11.9,-19.8C-8.1,-21.2,-4.1,-21.3,-0.9,-19.7C2.2,-18.1,4.3,-14.6,8.3,-13.4Z" width="100%" height="100%" transform="translate(50 50)" stroke-width="1" style="transition: all 0.3s ease 0s;" stroke="url(#sw-gradient)"></path>
              </svg>