<!--?xml version="1.0" standalone="no"?-->
              <svg id="sw-js-blob-svg" viewBox="0 0 100 100" xmlns="http://www.w3.org/2000/svg" version="1.1">
                    <defs> 
                        <linearGradient id="sw-gradient" x1="0" x2="1" y1="1" y2="0">
                            <stop id="stop1" stop-color="rgba(248, 117, 55, 1)" offset="0%"></stop>
                            <stop id="stop2" stop-color="rgba(251, 168, 31, 1)" offset="100%"></stop>
                        </linearGradient>
                    </defs>
                <path fill="none" d="M8.9,-15.7C11.5,-13.9,13.5,-11.4,20.2,-8.7C26.9,-6,38.3,-3,42.3,2.3C46.3,7.6,42.8,15.1,37.2,19.8C31.6,24.5,23.9,26.3,17.4,27.2C10.8,28.1,5.4,28,0.1,27.9C-5.2,27.7,-10.5,27.5,-13.3,24.4C-16.1,21.4,-16.5,15.6,-17.5,11C-18.6,6.5,-20.3,3.2,-22.7,-1.4C-25.2,-6.1,-28.3,-12.1,-25.9,-14.3C-23.5,-16.4,-15.4,-14.6,-10.2,-14.9C-5,-15.1,-2.5,-17.3,0.3,-17.9C3.2,-18.5,6.3,-17.4,8.9,-15.7Z" width="100%" height="100%" transform="translate(50 50)" stroke-width="1" style="transition: all 0.3s ease 0s;" stroke="url(#sw-gradient)"></path>
              </svg>