<!--?xml version="1.0" standalone="no"?-->
              <svg id="sw-js-blob-svg" viewBox="0 0 100 100" xmlns="http://www.w3.org/2000/svg" version="1.1">
                    <defs> 
                        <linearGradient id="sw-gradient" x1="0" x2="1" y1="1" y2="0">
                            <stop id="stop1" stop-color="rgba(248, 117, 55, 1)" offset="0%"></stop>
                            <stop id="stop2" stop-color="rgba(251, 168, 31, 1)" offset="100%"></stop>
                        </linearGradient>
                    </defs>
                <path fill="none" d="M8.7,-18C10.7,-13.8,11.6,-10.5,11.2,-7.6C10.9,-4.8,9.4,-2.4,12.4,1.7C15.3,5.8,22.8,11.6,23.6,15.4C24.5,19.1,18.7,20.7,13.6,19C8.6,17.4,4.3,12.4,-1.4,14.8C-7,17.1,-14,26.7,-20.2,29.1C-26.4,31.4,-31.8,26.4,-33.4,20.4C-35,14.3,-32.9,7.1,-32.7,0.1C-32.4,-6.9,-34,-13.7,-30.8,-16.9C-27.5,-20.1,-19.3,-19.7,-13.3,-21.7C-7.4,-23.6,-3.7,-28.1,-0.2,-27.7C3.3,-27.4,6.6,-22.3,8.7,-18Z" width="100%" height="100%" transform="translate(50 50)" stroke-width="1" style="transition: all 0.3s ease 0s;" stroke="url(#sw-gradient)"></path>
              </svg>