<!--?xml version="1.0" standalone="no"?-->
              <svg id="sw-js-blob-svg" viewBox="0 0 100 100" xmlns="http://www.w3.org/2000/svg" version="1.1">
                    <defs> 
                        <linearGradient id="sw-gradient" x1="0" x2="1" y1="1" y2="0">
                            <stop id="stop1" stop-color="rgba(174.398, 203.701, 102.426, 1)" offset="0%"></stop>
                            <stop id="stop2" stop-color="rgba(31, 251, 53.512, 1)" offset="100%"></stop>
                        </linearGradient>
                    </defs>
                <path fill="none" d="M17.3,-25.5C24.2,-25.9,33,-25,36.1,-20.5C39.2,-16.1,36.6,-8,33.3,-1.9C29.9,4.2,25.7,8.3,22.3,12.2C18.8,16,16.1,19.6,12.5,25.8C8.9,31.9,4.5,40.8,0.1,40.6C-4.3,40.4,-8.5,31.3,-11.6,24.8C-14.8,18.3,-16.8,14.6,-17.5,10.9C-18.2,7.2,-17.7,3.6,-20.2,-1.4C-22.7,-6.5,-28.3,-13,-28.6,-18.6C-29,-24.2,-24.2,-28.9,-18.6,-29.3C-12.9,-29.6,-6.5,-25.7,-0.7,-24.5C5.1,-23.4,10.3,-25.1,17.3,-25.5Z" width="100%" height="100%" transform="translate(50 50)" stroke-width="1" style="transition: all 0.3s ease 0s;" stroke="url(#sw-gradient)"></path>
              </svg>