<!--?xml version="1.0" standalone="no"?-->
              <svg id="sw-js-blob-svg" viewBox="0 0 100 100" xmlns="http://www.w3.org/2000/svg" version="1.1">
                    <defs> 
                        <linearGradient id="sw-gradient" x1="0" x2="1" y1="1" y2="0">
                            <stop id="stop1" stop-color="rgba(174.398, 203.701, 102.426, 1)" offset="0%"></stop>
                            <stop id="stop2" stop-color="rgba(31, 251, 53.512, 1)" offset="100%"></stop>
                        </linearGradient>
                    </defs>
                <path fill="none" d="M15.1,-23.4C19.1,-21,21.3,-15.9,22.2,-11C23.1,-6.1,22.7,-1.4,21.6,2.8C20.5,7,18.6,10.8,16.5,15.7C14.4,20.6,12,26.6,7.3,30.6C2.6,34.6,-4.3,36.5,-8.7,33.5C-13.1,30.4,-14.8,22.4,-18.9,16.9C-23.1,11.3,-29.6,8.2,-32.9,3.1C-36.2,-2.1,-36.4,-9.4,-34.6,-16.8C-32.8,-24.2,-28.9,-31.6,-22.8,-33C-16.7,-34.4,-8.4,-29.7,-1.4,-27.6C5.6,-25.4,11.2,-25.8,15.1,-23.4Z" width="100%" height="100%" transform="translate(50 50)" stroke-width="1" style="transition: all 0.3s ease 0s;" stroke="url(#sw-gradient)"></path>
              </svg>